<?xml version="1.0" standalone="no"?>
<!DOCTYPE svg PUBLIC "-//W3C//DTD SVG 20010904//EN"
 "http://www.w3.org/TR/2001/REC-SVG-20010904/DTD/svg10.dtd">
<svg version="1.0" xmlns="http://www.w3.org/2000/svg"
 width="800.000000pt" height="800.000000pt" viewBox="0 0 800.000000 800.000000"
 preserveAspectRatio="xMidYMid meet">
<metadata>
Created by potrace 1.11, written by Peter Selinger 2001-2013
</metadata>
<g transform="translate(0.000000,800.000000) scale(0.100000,-0.100000)"
fill="#000000" stroke="none">
<path d="M3658 6454 c-3 -2 -68 -5 -146 -6 -100 -2 -142 -6 -142 -14 0 -8 13
-10 40 -7 21 3 47 2 57 -2 10 -4 31 -7 47 -6 25 2 28 0 23 -18 -3 -12 -1 -19
4 -15 5 3 9 -2 9 -11 0 -10 -5 -14 -12 -9 -10 6 -10 4 0 -7 6 -7 12 -27 12
-44 0 -17 -6 -37 -12 -44 -7 -7 -8 -12 -3 -11 20 4 30 -1 17 -8 -9 -7 -10 -15
-3 -35 8 -21 7 -27 -7 -30 -14 -4 -14 -5 2 -6 20 -1 20 -1 0 -17 -10 -8 -14
-13 -8 -10 7 3 14 -3 17 -14 3 -11 0 -20 -6 -20 -9 0 -9 -2 -1 -8 7 -4 11 -26
11 -50 -1 -34 -4 -42 -16 -37 -10 3 -9 0 3 -10 11 -8 17 -15 13 -15 -4 0 -3
-9 3 -19 7 -14 7 -22 -1 -27 -8 -4 -7 -9 2 -15 11 -7 11 -9 1 -9 -7 0 -10 -5
-6 -11 3 -6 0 -15 -7 -20 -12 -7 -11 -9 1 -9 19 0 25 -101 7 -112 -9 -6 -9 -8
0 -8 7 0 12 -11 11 -25 -3 -28 -36 -42 -117 -47 -24 -2 -46 -8 -48 -13 -3 -11
119 -11 136 0 6 3 11 1 11 -6 0 -8 4 -8 15 1 12 10 15 10 15 -1 0 -9 3 -10 8
-4 4 6 62 11 130 12 68 1 126 4 130 6 4 3 19 3 35 1 15 -1 27 2 27 7 0 5 -28
10 -62 10 -125 3 -127 4 -129 84 0 28 -2 92 -4 143 -2 64 0 92 8 93 7 0 58 2
114 4 112 3 160 15 215 52 135 91 109 274 -51 345 -39 18 -69 22 -193 24 -80
1 -148 0 -150 -2z m232 -27 c36 -16 63 -46 56 -62 -3 -8 0 -14 7 -12 7 1 12
-8 11 -20 0 -13 3 -23 8 -23 5 0 6 -4 3 -10 -3 -5 -1 -10 6 -10 8 0 8 -4 -1
-15 -7 -8 -17 -12 -23 -8 -6 3 -7 1 -3 -5 4 -6 14 -8 23 -5 13 5 15 -1 9 -46
-7 -57 -30 -121 -43 -121 -5 0 -15 6 -23 13 -12 10 -12 9 -1 -5 12 -16 10 -19
-15 -29 -16 -7 -66 -14 -111 -17 l-83 -4 -1 38 c0 22 -3 107 -5 191 -3 138 -2
152 14 156 32 9 147 4 172 -6z"/>
<path d="M3879 6393 c-13 -16 -12 -17 4 -4 9 7 17 15 17 17 0 8 -8 3 -21 -13z"/>
<path d="M3950 6180 c0 -5 5 -10 11 -10 5 0 7 5 4 10 -3 6 -8 10 -11 10 -2 0
-4 -4 -4 -10z"/>
<path d="M5396 6284 c-3 -8 -2 -13 3 -10 10 7 111 -22 128 -36 8 -7 11 -22 7
-42 -4 -17 -7 -37 -7 -43 0 -7 -4 -13 -9 -13 -5 0 -6 -5 -3 -11 4 -6 -1 -17
-11 -25 -11 -9 -13 -12 -5 -8 11 6 13 2 7 -17 -4 -13 -9 -39 -13 -56 -3 -18
-9 -33 -13 -33 -5 0 -6 -9 -3 -20 9 -33 -12 -22 -22 12 -6 17 -22 40 -36 50
-37 28 -126 25 -173 -5 -11 -8 -25 -15 -31 -17 -5 -1 -16 -11 -23 -22 -7 -10
-18 -15 -24 -12 -6 4 -8 2 -5 -3 4 -6 -2 -21 -12 -34 -10 -13 -25 -43 -33 -67
-8 -23 -18 -39 -23 -35 -5 5 -4 1 3 -8 6 -9 9 -19 5 -22 -10 -11 -9 -97 2 -97
5 0 3 -5 -5 -10 -10 -6 -11 -10 -2 -10 6 0 12 -8 12 -18 0 -10 6 -24 12 -30
10 -10 10 -15 -2 -23 -13 -9 -13 -10 2 -6 10 4 23 -4 34 -19 11 -13 25 -24 32
-24 7 0 11 -4 8 -8 -5 -8 2 -9 74 -13 51 -2 95 20 106 53 12 38 15 10 3 -36
-13 -51 -6 -84 14 -68 14 12 67 11 67 -1 0 -5 4 -6 8 -3 5 3 34 1 65 -3 60 -8
99 2 50 13 -15 4 -41 12 -56 18 -26 10 -28 15 -23 47 3 20 12 57 20 84 8 26
13 47 10 47 -3 0 0 8 5 18 5 9 11 31 14 47 9 51 98 399 106 415 13 26 7 73 -9
75 -8 2 -33 6 -55 9 -23 4 -52 9 -65 11 -14 3 -43 8 -65 11 -22 3 -45 7 -52 9
-6 2 -14 -3 -17 -11z m10 -262 c6 -4 19 -22 28 -39 12 -25 13 -33 4 -34 -10 0
-10 -2 0 -6 10 -4 10 -8 0 -21 -10 -12 -10 -14 0 -8 19 11 14 -15 -5 -31 -14
-10 -14 -13 -3 -11 9 2 14 -3 12 -12 -4 -15 -7 -33 -17 -87 -2 -16 -9 -29 -15
-31 -5 -2 -8 -8 -4 -13 3 -5 2 -15 -3 -21 -4 -7 -8 -15 -9 -18 -4 -19 -21 -48
-37 -62 -11 -10 -16 -18 -12 -18 5 0 -1 -9 -13 -21 -12 -11 -27 -17 -34 -13
-7 4 -8 3 -4 -4 8 -14 -32 -16 -51 -4 -24 15 -40 72 -32 116 4 22 10 55 13 71
15 83 57 215 68 215 4 0 8 6 8 14 0 31 76 58 106 38z"/>
<path d="M4150 6180 c0 -5 17 -10 38 -10 47 0 81 -26 76 -57 -2 -12 -5 -39 -7
-60 -1 -21 -6 -44 -10 -51 -5 -6 -5 -12 0 -12 4 0 7 -20 5 -45 -2 -25 -7 -43
-11 -40 -4 2 -8 -2 -8 -10 0 -8 4 -12 9 -9 4 3 8 -2 8 -10 0 -9 -5 -16 -11
-16 -8 0 -8 -4 -2 -12 5 -7 8 -29 6 -48 -2 -19 -4 -42 -5 -50 -2 -28 -18 -37
-68 -35 -27 1 -50 -2 -50 -7 0 -10 -10 -9 95 -15 49 -2 93 -9 96 -15 5 -7 8
-7 13 0 6 9 79 8 129 -3 11 -2 17 1 14 8 -4 12 -10 14 -59 16 -34 1 -58 25
-53 52 2 12 7 67 10 122 6 111 18 175 40 217 19 37 71 79 92 75 10 -2 22 -4
27 -4 6 -1 1 -7 -9 -15 -11 -8 -23 -12 -26 -10 -4 2 -9 -14 -13 -35 -3 -22 -9
-41 -13 -44 -5 -2 -3 -3 3 -1 11 2 40 -36 36 -49 -1 -5 3 -5 10 -1 7 5 18 9
23 10 6 0 15 2 22 2 48 7 59 93 17 136 -15 14 -33 27 -40 27 -8 1 -20 2 -26 3
-31 5 -72 -20 -100 -58 l-30 -41 4 50 3 50 -117 3 c-76 2 -118 -1 -118 -8z"/>
<path d="M4807 6139 c-20 -5 -54 -17 -75 -28 -38 -19 -102 -82 -102 -101 0 -5
-4 -10 -8 -10 -4 0 -9 -10 -9 -22 -1 -13 -4 -32 -6 -43 -3 -11 -6 -24 -6 -28
-1 -5 -5 -6 -10 -2 -5 3 -13 1 -16 -5 -4 -6 -1 -9 6 -8 7 2 14 -6 15 -17 1
-11 4 -32 7 -47 3 -15 1 -30 -4 -34 -5 -3 2 -17 16 -32 14 -15 26 -31 27 -37
1 -5 12 -18 25 -29 16 -12 22 -24 18 -35 -5 -12 -3 -13 6 -4 9 9 20 7 49 -8
37 -20 184 -34 174 -17 -3 4 6 10 20 14 14 3 30 12 37 20 6 8 14 12 18 10 4
-3 22 17 41 43 23 31 38 44 43 37 5 -6 6 -1 2 11 -3 12 -2 24 3 27 5 3 7 17 4
31 -2 14 0 25 5 25 12 0 7 71 -9 120 -11 35 -49 94 -78 118 -22 19 -90 49
-125 55 -16 3 -47 1 -68 -4z m108 -29 c17 -9 32 -25 33 -35 3 -12 0 -15 -9
-10 -8 5 -10 4 -5 -4 4 -6 11 -9 16 -6 5 3 11 1 15 -5 3 -5 0 -10 -7 -10 -9 0
-9 -3 -2 -8 14 -9 14 -43 0 -61 -8 -11 -8 -13 2 -7 15 9 16 -6 0 -22 -9 -9 -9
-12 1 -12 7 0 9 -5 5 -12 -4 -7 -9 -32 -11 -57 -1 -25 -6 -47 -10 -50 -5 -3
-9 -15 -11 -26 -7 -50 -9 -62 -20 -82 -40 -75 -139 -77 -176 -4 -15 27 -16
169 -2 230 20 90 41 138 70 166 37 35 67 39 111 15z"/>
<path d="M4454 6116 c1 -8 5 -18 8 -22 4 -3 5 1 4 10 -1 8 -5 18 -8 22 -4 3
-5 -1 -4 -10z"/>
<path d="M2771 6067 c-23 -11 -49 -30 -58 -43 -8 -13 -19 -21 -24 -18 -5 3 -9
-4 -9 -15 0 -12 -4 -21 -8 -21 -5 0 -9 -6 -10 -12 -11 -81 -14 -89 -31 -76
-15 12 -15 11 0 -7 19 -25 14 -56 -9 -49 -9 2 -7 -1 6 -8 17 -8 22 -18 19 -35
-2 -13 -1 -23 3 -23 4 0 10 -14 14 -30 8 -43 8 -44 22 -58 7 -7 12 -18 10 -25
-1 -7 -1 -9 1 -4 9 14 25 7 19 -9 -3 -8 -2 -12 4 -9 10 6 42 -19 40 -30 -1 -4
2 -10 6 -13 4 -4 3 -1 -1 7 -6 11 -4 13 11 7 122 -50 243 -15 295 85 20 40 27
139 10 139 -6 0 -10 -22 -9 -49 0 -69 -33 -125 -89 -152 -53 -26 -73 -29 -98
-17 -40 20 -88 101 -100 168 -5 29 6 38 55 46 8 1 27 5 41 8 14 3 39 7 55 9
17 2 34 6 39 9 6 3 29 9 53 13 53 9 55 27 11 114 -55 111 -160 149 -268 98z
m115 -14 c21 -19 44 -60 47 -83 2 -8 6 -21 10 -27 5 -8 4 -13 -2 -13 -6 0 -11
-5 -11 -11 0 -5 4 -8 9 -4 13 7 25 -35 14 -46 -4 -4 -40 -15 -80 -23 -39 -9
-76 -17 -83 -18 -33 -8 -38 175 -6 211 10 11 23 18 27 15 5 -3 9 0 9 5 0 17
45 13 66 -6z"/>
<path d="M2446 5980 c-17 -14 -33 -32 -35 -40 -2 -8 -7 -28 -11 -45 l-7 -30
-12 45 c-7 25 -15 48 -17 52 -2 3 -43 -10 -92 -29 -48 -19 -93 -36 -100 -37
-7 -1 -17 -7 -23 -13 -7 -7 -2 -12 20 -15 16 -2 28 -1 26 3 -3 4 5 9 18 13 33
9 37 8 37 -11 0 -14 2 -15 9 -5 7 11 9 11 14 -2 4 -9 1 -16 -6 -16 -8 0 -6 -4
3 -10 8 -5 11 -10 5 -10 -5 0 -4 -4 3 -9 7 -4 14 -22 14 -39 1 -18 5 -32 10
-32 4 0 8 -11 8 -23 0 -13 3 -27 7 -31 11 -11 31 -75 25 -81 -10 -10 -11 -35
-1 -29 5 3 6 11 3 17 -4 7 -3 9 1 4 12 -11 17 -50 6 -42 -5 3 -13 1 -16 -5 -4
-6 -3 -10 2 -9 21 4 31 -3 37 -25 3 -13 8 -31 11 -38 7 -18 -40 -41 -65 -33
-10 3 -35 -1 -54 -9 -35 -14 -36 -14 -54 12 -10 15 -31 56 -46 92 -16 36 -42
93 -58 127 -16 35 -29 65 -28 68 1 11 -51 105 -58 105 -4 0 -37 -15 -74 -34
-36 -19 -69 -32 -72 -29 -3 4 -6 1 -6 -5 0 -7 -15 -18 -32 -26 -29 -12 -30
-15 -14 -21 10 -5 21 -3 25 2 3 6 17 14 30 18 18 5 22 4 17 -6 -4 -8 -1 -6 8
5 14 17 16 17 31 2 10 -9 14 -23 11 -31 -3 -8 -2 -14 2 -14 19 3 23 -2 12 -16
-10 -13 -11 -18 -1 -28 10 -9 11 -8 6 8 -7 20 -7 20 9 0 9 -11 14 -25 12 -31
-3 -7 2 -15 10 -18 8 -3 14 -15 14 -26 0 -11 5 -20 10 -20 6 0 10 -11 10 -25
0 -14 4 -25 9 -25 6 0 13 -21 17 -47 3 -27 8 -56 10 -65 1 -10 -1 -18 -6 -18
-4 0 -6 -8 -3 -19 3 -12 -6 -31 -24 -51 -28 -31 -31 -32 -58 -19 -23 11 -40
38 -82 129 -58 127 -94 208 -114 258 -16 38 -18 38 -69 12 -22 -11 -40 -17
-40 -13 0 4 -6 0 -12 -9 -17 -20 -48 -31 -48 -16 0 23 -52 79 -93 100 -53 27
-134 28 -205 3 -29 -11 -52 -23 -52 -27 0 -4 -5 -8 -10 -8 -10 0 -174 -108
-213 -140 -10 -8 -20 -13 -24 -12 -3 2 -9 0 -12 -5 -16 -23 -81 -64 -92 -57
-8 4 -9 3 -5 -4 4 -7 -7 -20 -28 -33 -20 -12 -36 -25 -36 -30 0 -15 14 -10 50
16 19 14 40 23 48 20 7 -2 11 -1 8 4 -7 10 35 29 52 24 6 -3 12 -11 12 -19 0
-8 5 -14 11 -14 5 0 8 -4 5 -9 -3 -5 1 -11 9 -15 8 -3 15 -10 15 -16 0 -6 -5
-8 -12 -4 -7 4 -8 3 -4 -5 4 -6 11 -9 16 -6 5 3 17 -8 26 -25 10 -16 22 -30
26 -30 4 0 8 -9 8 -21 0 -13 -4 -18 -12 -13 -7 4 -8 3 -4 -4 4 -6 13 -9 20 -6
13 5 53 -43 48 -58 -1 -5 3 -8 9 -8 6 0 8 -10 5 -22 -3 -13 -3 -17 0 -10 8 17
56 -38 49 -56 -3 -7 -1 -10 5 -7 13 8 43 -41 34 -56 -4 -7 -3 -9 3 -6 10 6 43
-26 43 -42 0 -5 4 -11 9 -13 5 -1 11 -9 13 -17 2 -7 13 -24 26 -37 21 -22 23
-52 2 -39 -5 3 -11 1 -15 -4 -3 -6 5 -8 20 -5 22 4 24 2 14 -13 -6 -10 -35
-36 -64 -58 -33 -24 -50 -44 -45 -49 6 -6 17 -3 28 7 10 9 22 15 25 12 4 -3 5
-2 2 1 -4 6 59 54 71 54 3 0 12 7 21 15 8 8 20 12 26 8 7 -3 9 -2 4 2 -9 11
43 46 56 38 6 -3 7 -1 4 4 -4 6 16 26 46 44 28 19 58 39 64 45 7 7 29 22 50
35 20 13 32 24 25 27 -10 3 -19 -1 -107 -53 -22 -13 -47 -24 -55 -24 -13 0
-180 228 -180 246 0 10 62 47 73 45 4 -1 7 2 7 7 0 5 17 20 38 32 40 25 133
115 125 123 -3 2 0 13 6 24 11 21 23 69 23 94 -1 19 21 30 44 21 15 -6 15 -8
-2 -21 -16 -12 -16 -14 -2 -9 10 3 20 2 23 -3 4 -6 0 -10 -7 -11 -7 0 -3 -4
10 -9 20 -8 21 -13 11 -31 -7 -13 -7 -19 -1 -15 11 7 45 -55 45 -80 0 -8 5
-14 10 -14 6 0 8 -3 4 -6 -3 -4 1 -13 9 -22 9 -8 13 -23 11 -34 -3 -10 -1 -16
3 -13 15 9 22 -15 9 -31 -10 -12 -9 -13 5 -8 14 6 21 -5 17 -28 0 -5 5 -7 12
-5 6 1 11 -5 9 -13 -2 -8 0 -12 3 -8 4 4 22 0 39 -9 17 -10 36 -16 41 -14 6 2
19 5 29 7 55 11 89 29 110 60 12 19 25 32 27 30 2 -3 4 16 3 42 -2 46 -2 46
12 19 8 -15 13 -35 12 -45 -2 -13 5 -17 35 -18 20 -1 37 2 37 7 0 13 91 61
105 55 8 -3 33 1 55 9 22 8 40 12 40 8 0 -3 6 -1 13 5 6 5 28 13 47 17 19 4
40 10 45 14 6 4 38 16 73 26 34 10 62 22 62 28 0 5 -10 7 -22 3 -13 -3 -39 -9
-59 -12 l-35 -6 -43 140 c-41 136 -58 242 -39 242 5 0 7 3 4 8 -8 13 21 70 41
81 11 5 25 6 32 1 11 -6 9 -9 -6 -14 -20 -6 -22 -26 -8 -83 4 -18 11 -30 15
-28 5 3 19 1 32 -4 51 -19 93 52 64 108 -28 54 -98 64 -150 21z m-1088 -265
c22 -11 29 -21 26 -33 -5 -14 -4 -14 4 -3 9 12 13 13 27 1 9 -7 14 -19 11 -26
-3 -7 0 -16 6 -20 7 -5 8 -2 3 7 -4 8 2 4 14 -8 11 -12 21 -26 21 -32 0 -5 5
-11 11 -13 6 -2 12 -16 12 -31 0 -16 4 -24 10 -20 6 4 8 -11 5 -42 -6 -52 -38
-90 -129 -152 l-44 -30 -45 66 c-24 36 -47 68 -50 71 -16 13 -110 163 -110
174 0 19 27 40 94 75 66 35 90 38 134 16z"/>
<path d="M5710 5951 c0 -6 11 -13 25 -17 14 -3 23 -10 20 -14 -3 -4 3 -7 13
-6 11 1 18 -7 20 -23 2 -13 0 -21 -5 -18 -4 3 -9 -6 -10 -20 0 -14 -5 -28 -10
-32 -4 -3 -8 -10 -8 -16 -1 -24 -29 -95 -37 -95 -5 0 -7 -4 -3 -9 3 -5 1 -12
-5 -16 -6 -4 -8 -11 -4 -16 3 -5 2 -15 -3 -22 -28 -38 -44 -167 -21 -167 4 0
8 -6 8 -12 0 -15 60 -58 79 -58 7 0 10 -3 8 -7 -6 -9 80 -5 103 4 8 4 18 7 21
7 4 1 16 12 28 26 l21 25 -18 -42 c-9 -22 -20 -39 -24 -37 -4 2 -10 -1 -14 -7
-4 -8 -3 -9 4 -5 7 4 12 1 12 -8 0 -9 7 -16 16 -16 9 0 24 -10 33 -22 14 -16
20 -18 26 -8 5 8 4 11 -3 6 -6 -3 -13 -2 -17 4 -8 14 5 13 54 -5 22 -8 41 -12
41 -9 0 2 13 -2 28 -10 26 -13 29 -13 40 4 10 16 9 18 -2 14 -23 -9 -82 24
-83 46 -1 11 2 22 8 25 5 4 9 12 9 20 0 8 5 26 12 42 6 15 12 30 13 33 0 3 7
16 15 30 7 14 12 25 10 25 -5 0 51 157 61 170 4 6 10 26 14 46 l7 35 -105 32
c-58 18 -110 32 -117 32 -22 0 1 -19 38 -31 20 -6 42 -16 48 -20 16 -13 5 -59
-15 -60 -9 0 -11 -3 -5 -5 9 -4 9 -14 1 -39 -5 -19 -15 -31 -20 -28 -6 3 -7 2
-4 -4 9 -14 -14 -83 -26 -76 -6 3 -7 1 -3 -6 8 -13 -29 -101 -42 -101 -5 0
-14 -11 -21 -24 -8 -13 -31 -32 -53 -42 -36 -16 -43 -16 -67 -3 -36 20 -37 52
-6 135 15 38 33 89 42 114 8 25 21 59 28 75 21 47 56 147 53 150 -3 2 -126 42
-185 60 -14 4 -23 2 -23 -4z"/>
<path d="M4206 5942 c-3 -5 1 -9 9 -9 8 0 12 4 9 9 -3 4 -7 8 -9 8 -2 0 -6 -4
-9 -8z"/>
<path d="M2230 5840 c0 -5 5 -10 11 -10 5 0 7 5 4 10 -3 6 -8 10 -11 10 -2 0
-4 -4 -4 -10z"/>
<path d="M4216 5813 c-6 -14 -5 -15 5 -6 7 7 10 15 7 18 -3 3 -9 -2 -12 -12z"/>
<path d="M2256 5798 c3 -5 10 -6 15 -3 13 9 11 12 -6 12 -8 0 -12 -4 -9 -9z"/>
<path d="M2636 5741 c-3 -5 2 -15 12 -22 15 -12 16 -12 5 2 -7 9 -10 19 -6 22
3 4 4 7 0 7 -3 0 -8 -4 -11 -9z"/>
<path d="M2309 5658 c7 -9 9 -23 5 -30 -6 -10 -4 -11 7 0 11 10 10 15 -6 30
-17 15 -18 15 -6 0z"/>
<path d="M5075 5660 c-3 -5 -1 -10 4 -10 6 0 11 5 11 10 0 6 -2 10 -4 10 -3 0
-8 -4 -11 -10z"/>
<path d="M6370 5651 c-40 -13 -94 -43 -103 -58 -5 -7 -13 -11 -18 -7 -5 3 -9
2 -7 -3 1 -4 -13 -32 -32 -61 -20 -32 -35 -70 -38 -95 -2 -23 -9 -48 -15 -56
-9 -12 -9 -13 1 -7 8 5 12 0 13 -13 2 -29 3 -33 18 -60 11 -19 11 -22 -1 -16
-7 3 -5 0 6 -9 10 -8 15 -20 11 -26 -3 -6 -3 -9 2 -8 5 2 19 -7 33 -19 13 -13
28 -23 32 -23 5 0 6 -5 3 -10 -4 -6 -3 -10 2 -9 20 4 44 -2 39 -9 -7 -11 114
-6 144 6 58 24 139 132 100 132 -5 0 -10 -6 -10 -14 0 -25 -75 -94 -116 -106
-48 -14 -111 -1 -139 30 -46 51 -24 165 59 303 62 104 107 131 177 105 50 -18
79 -113 32 -104 -23 5 -57 -14 -62 -34 -3 -14 -3 -20 1 -54 1 -8 14 -20 30
-27 47 -19 99 12 103 63 0 3 3 9 6 13 14 14 -18 82 -57 122 -57 56 -138 77
-214 54z"/>
<path d="M6980 5591 c-17 -21 -43 -44 -58 -52 -15 -7 -33 -18 -41 -23 -22 -16
-42 -20 -115 -19 l-70 0 30 -23 c16 -13 32 -24 37 -24 4 0 7 -9 7 -20 0 -11
-4 -20 -10 -20 -5 0 -10 -5 -10 -10 0 -11 -39 -71 -53 -81 -5 -3 -8 -9 -8 -13
1 -15 -12 -35 -20 -30 -5 3 -6 -1 -3 -9 3 -8 -3 -21 -13 -28 -10 -8 -19 -20
-21 -28 -1 -7 -14 -29 -27 -49 -14 -20 -25 -45 -25 -55 0 -10 -4 -15 -10 -12
-6 4 -6 -3 0 -21 6 -15 9 -29 7 -31 -3 -2 10 -18 28 -36 106 -105 173 -82 267
90 20 37 22 43 10 43 -4 0 -22 -23 -40 -50 -50 -76 -93 -122 -109 -116 -8 3
-11 1 -8 -4 9 -15 -7 -12 -32 5 -37 26 -33 48 23 136 30 46 57 92 60 102 4 9
10 17 15 17 5 0 9 5 9 11 0 12 78 129 86 129 3 0 25 -13 49 -30 49 -33 58 -36
73 -17 8 9 -2 21 -44 47 -29 19 -54 39 -54 43 0 8 5 18 74 124 25 40 46 77 46
82 0 21 -20 10 -50 -28z"/>
<path d="M1699 5528 c-5 -18 -6 -38 -1 -34 7 8 12 36 6 36 -2 0 -4 -1 -5 -2z"/>
<path d="M2355 5511 c-3 -5 -2 -12 3 -15 5 -3 9 1 9 9 0 17 -3 19 -12 6z"/>
<path d="M1719 5458 c-5 -18 -6 -38 -1 -34 7 8 12 36 6 36 -2 0 -4 -1 -5 -2z"/>
<path d="M5676 5418 c3 -4 11 -5 19 -1 21 7 19 12 -4 10 -11 0 -18 -5 -15 -9z"/>
<path d="M4588 5235 c-2 -2 -43 -6 -93 -9 -121 -8 -170 -15 -232 -33 -29 -8
-57 -12 -63 -8 -5 3 -10 1 -10 -4 0 -6 -8 -11 -18 -11 -20 0 -135 -41 -180
-64 -17 -9 -38 -16 -47 -16 -8 0 -15 -4 -15 -9 0 -5 -10 -13 -22 -17 -22 -7
-67 -37 -116 -79 -25 -21 -52 -63 -34 -51 6 3 16 0 24 -7 7 -8 18 -12 25 -10
6 2 15 -1 19 -8 5 -8 3 -9 -6 -4 -9 5 -11 4 -6 -4 4 -6 12 -9 17 -6 13 9 50
-5 44 -15 -3 -5 0 -12 6 -16 8 -5 9 -3 4 6 -6 9 -2 10 16 5 53 -16 78 -35 73
-53 -4 -10 -2 -13 3 -7 9 11 15 11 51 0 12 -4 22 -12 22 -17 0 -5 5 -6 10 -3
6 3 10 1 10 -6 0 -7 3 -9 7 -6 3 4 12 -1 20 -11 8 -9 11 -11 8 -4 -4 7 21 -1
54 -18 34 -17 59 -35 56 -40 -3 -5 1 -7 9 -4 8 3 31 -5 53 -19 21 -13 48 -27
61 -31 12 -4 22 -15 22 -24 0 -15 2 -15 10 -2 9 14 14 7 11 -13 -1 -5 3 -6 9
-2 16 10 52 -5 46 -20 -3 -9 2 -11 15 -8 11 3 19 0 19 -6 0 -7 4 -10 9 -6 5 3
16 -1 24 -9 8 -8 17 -12 21 -9 3 4 6 1 6 -5 0 -7 3 -11 8 -10 14 3 82 -31 82
-42 0 -6 4 -9 9 -5 15 9 61 -17 62 -34 0 -9 3 -11 5 -4 4 8 28 0 77 -25 40
-20 75 -36 79 -37 4 0 16 -7 26 -16 10 -8 24 -13 32 -11 9 3 11 -1 7 -11 -3
-9 -1 -19 5 -23 6 -4 8 -3 4 4 -3 6 -2 13 4 17 5 3 10 1 10 -6 0 -7 3 -9 7 -6
3 4 12 2 20 -4 7 -6 13 -9 13 -6 0 3 13 1 30 -4 16 -6 28 -15 25 -19 -3 -4 4
-6 15 -3 11 3 20 1 20 -3 0 -5 10 -10 23 -10 39 -3 148 -30 142 -36 -3 -3 6
-3 20 0 21 4 24 1 19 -14 -5 -19 -5 -19 6 0 10 15 14 16 21 5 5 -9 9 -10 9 -2
0 15 40 4 40 -11 0 -6 5 -4 10 4 8 12 13 13 30 2 11 -7 20 -9 20 -5 0 5 25 6
56 4 38 -2 52 -6 43 -12 -11 -7 -11 -9 4 -9 9 0 17 4 17 9 0 8 52 6 78 -4 6
-2 12 0 12 6 0 6 4 8 8 5 7 -4 486 -9 584 -6 22 0 15 71 -17 161 -116 333
-464 609 -959 758 -67 21 -82 24 -141 36 -16 3 -37 8 -45 10 -8 2 -37 7 -65
11 -27 3 -52 8 -55 9 -12 8 -336 26 -342 20z"/>
<path d="M6546 5118 c3 -5 10 -6 15 -3 13 9 11 12 -6 12 -8 0 -12 -4 -9 -9z"/>
<path d="M2748 5025 c-2 -1 -39 -6 -83 -10 -44 -4 -82 -8 -85 -10 -3 -2 -26
-6 -50 -10 -25 -3 -81 -16 -125 -27 -44 -11 -87 -22 -95 -23 -8 -1 -28 -7 -43
-14 -16 -6 -33 -9 -38 -5 -5 3 -9 1 -9 -4 0 -5 -19 -14 -42 -21 -24 -7 -58
-19 -77 -28 -18 -8 -39 -16 -45 -17 -6 -1 -51 -21 -99 -44 -49 -23 -91 -42
-93 -42 -6 0 -286 -170 -323 -196 -18 -13 -38 -21 -44 -17 -5 3 -7 1 -4 -4 4
-6 -4 -18 -18 -27 -14 -9 -25 -13 -25 -10 0 4 -8 -2 -17 -12 -10 -11 -36 -33
-58 -49 -22 -16 -53 -42 -70 -57 -16 -15 -33 -28 -37 -28 -3 0 -19 -12 -35
-27 -105 -99 -145 -131 -127 -100 4 7 3 9 -2 4 -5 -5 -9 -12 -9 -15 -1 -17
-17 -32 -28 -26 -7 4 -9 3 -4 -1 10 -11 -103 -126 -116 -118 -6 3 -7 1 -3 -5
3 -6 -4 -19 -17 -29 -13 -10 -34 -33 -47 -50 -13 -18 -30 -33 -39 -33 -8 0
-12 -3 -9 -6 3 -3 -12 -24 -33 -46 -21 -23 -39 -46 -39 -51 0 -5 -7 -7 -14 -4
-9 4 -13 1 -11 -6 6 -14 -53 -83 -67 -79 -5 1 -7 -2 -3 -8 3 -5 1 -10 -6 -10
-7 0 -10 -3 -6 -6 3 -3 -5 -17 -19 -31 -13 -13 -24 -28 -24 -34 0 -6 -5 -7
-12 -3 -7 4 -8 3 -4 -4 4 -8 15 -8 31 -2 18 7 25 6 25 -2 0 -9 3 -9 12 0 16
16 31 15 22 0 -6 -10 -4 -10 7 -2 23 18 91 25 108 11 12 -9 13 -9 7 1 -4 6 -4
12 1 13 4 0 18 2 30 3 14 2 20 -2 16 -8 -4 -6 1 -5 10 3 10 8 20 11 23 8 3 -3
17 -2 32 2 19 6 31 3 40 -8 10 -13 12 -13 10 -2 -2 8 5 17 16 19 13 3 16 0 10
-10 -6 -10 -5 -10 9 1 9 7 17 11 17 7 0 -3 11 -1 25 4 18 7 25 6 25 -2 0 -9 3
-9 12 0 9 9 16 8 32 -6 18 -14 19 -14 8 0 -12 14 -8 16 38 16 27 1 55 4 60 7
6 3 10 -2 10 -12 0 -15 2 -15 9 -4 11 18 100 23 120 7 11 -8 13 -8 7 2 -5 9 4
12 36 13 24 0 67 2 96 3 28 1 52 -1 52 -6 0 -4 11 -3 25 2 31 12 46 10 63 -10
8 -8 11 -10 8 -3 -11 20 15 26 30 7 9 -11 13 -13 9 -6 -3 6 -3 12 2 13 42 5
63 5 63 -1 0 -4 20 -6 45 -4 30 3 54 -1 72 -12 20 -12 23 -12 10 -1 -17 14
-16 15 7 13 15 0 26 -5 26 -10 0 -6 5 -5 12 2 9 9 16 8 32 -6 11 -9 16 -11 12
-5 -5 9 1 12 18 11 15 -1 26 -6 26 -11 0 -5 6 -4 14 2 10 8 21 9 33 3 10 -5
24 -7 32 -4 8 3 11 0 7 -6 -3 -6 -1 -14 5 -18 8 -4 9 -3 5 4 -10 16 36 16 53
0 11 -10 13 -10 7 0 -4 7 -1 12 8 12 9 0 16 -4 16 -9 0 -4 12 -6 28 -4 22 4
24 2 12 -7 -12 -9 -11 -10 8 -5 28 8 95 -3 88 -14 -3 -4 6 -6 19 -3 14 2 25 0
25 -5 0 -5 10 -9 23 -10 28 -1 64 -10 78 -19 11 -6 22 -8 67 -13 7 0 11 -5 8
-10 -4 -5 4 -7 16 -3 15 4 19 2 13 -7 -6 -10 -2 -11 15 -6 17 5 21 4 15 -5 -5
-9 -4 -11 3 -6 14 8 92 -13 92 -25 0 -5 7 -6 15 -3 8 4 15 2 15 -2 0 -5 12
-10 26 -10 14 -1 32 -10 40 -20 9 -11 13 -13 9 -6 -3 6 -1 12 4 12 6 0 11 -4
11 -10 0 -5 3 -9 8 -8 11 4 92 -24 88 -31 -2 -3 6 -7 18 -7 12 -1 42 -11 66
-23 24 -11 50 -21 57 -21 12 0 17 -13 14 -33 -1 -5 3 -6 9 -2 6 3 8 10 5 15
-6 10 81 -27 137 -58 20 -11 39 -18 42 -15 3 4 6 0 6 -7 0 -7 3 -11 6 -7 4 3
13 -1 21 -9 8 -8 19 -12 24 -9 5 4 9 1 9 -6 0 -7 3 -9 6 -6 4 3 16 1 28 -5 11
-7 23 -13 26 -13 32 -8 60 -27 54 -37 -5 -10 -4 -10 6 -1 13 12 60 -2 60 -19
0 -4 3 -7 8 -6 19 5 72 -15 66 -24 -4 -7 -2 -8 4 -4 14 8 93 -14 87 -24 -3 -4
1 -8 8 -7 36 1 57 -4 52 -13 -3 -5 2 -9 12 -8 35 5 114 -13 107 -24 -4 -7 -2
-8 4 -4 17 10 63 -4 55 -18 -5 -8 -3 -8 8 1 15 12 72 6 64 -7 -3 -5 4 -6 15
-3 11 3 28 -1 37 -8 11 -9 14 -10 9 -2 -4 8 -2 11 6 8 16 -5 97 -16 121 -16 9
0 17 -8 17 -17 0 -13 2 -13 14 3 13 18 13 18 24 -1 6 -10 12 -13 12 -6 0 6 7
12 16 12 8 0 12 -5 8 -11 -4 -7 1 -7 16 1 20 11 22 10 17 -4 -5 -12 -3 -15 6
-9 13 8 87 11 87 3 0 -3 26 -5 58 -4 31 0 60 -4 64 -10 5 -7 8 -5 8 4 0 13 1
13 11 0 8 -12 12 -12 16 -2 4 10 8 10 19 1 8 -6 14 -8 14 -4 0 4 8 1 17 -6 9
-8 14 -9 10 -3 -5 8 12 11 58 10 59 -1 70 -6 66 -29 -1 -5 3 -6 9 -2 6 3 8 10
5 15 -3 5 -1 11 5 15 5 3 10 0 10 -7 0 -9 3 -9 10 2 8 13 11 12 25 -5 9 -11
14 -15 11 -8 -8 15 10 27 19 13 4 -6 12 -7 18 -3 7 5 35 8 64 8 28 0 49 3 46
8 -2 4 3 7 11 7 8 0 18 9 21 21 10 29 -17 55 -159 151 -67 46 -151 113 -188
149 -67 66 -75 82 -69 143 2 27 50 69 69 61 9 -3 13 -3 9 1 -9 10 44 36 60 29
8 -2 11 0 8 5 -6 10 27 21 70 24 14 0 25 4 25 8 0 4 9 5 20 3 11 -2 22 0 25 5
3 4 13 7 23 5 9 -1 24 1 33 6 10 5 21 3 27 -3 8 -8 12 -9 12 -1 0 6 18 13 40
15 22 2 40 -1 40 -5 0 -5 6 -4 14 2 14 12 273 23 471 21 308 -3 395 -6 395
-10 0 -3 55 -6 122 -8 83 -2 125 -6 130 -15 6 -9 8 -9 8 1 0 15 52 16 68 0 9
-9 12 -9 12 1 0 11 3 11 15 1 9 -8 15 -9 15 -2 0 6 10 8 23 5 12 -3 48 -6 80
-7 40 -1 56 -5 53 -13 -3 -7 -1 -15 5 -18 5 -4 9 -3 8 2 -3 19 2 34 10 29 5
-3 42 -8 83 -10 40 -3 111 -8 158 -11 47 -3 119 -8 160 -11 141 -9 160 -11
166 -17 3 -3 12 -3 20 0 8 3 14 -1 14 -8 0 -11 2 -11 9 -1 5 9 23 11 62 7 30
-3 74 -5 97 -5 34 1 42 -2 36 -12 -6 -10 -4 -10 7 -2 8 6 29 10 47 8 35 -2 38
1 20 20 -7 8 -47 51 -88 96 -242 267 -410 377 -621 405 -30 4 -65 9 -79 11
-66 9 -283 15 -685 19 -242 2 -460 6 -485 9 -25 3 -70 8 -100 11 -30 3 -58 11
-62 18 -6 9 -8 9 -8 0 0 -8 -9 -9 -31 -3 -17 5 -34 9 -38 8 -6 -2 -80 17 -121
31 -136 47 -385 167 -780 376 -193 102 -542 270 -580 280 -3 0 -41 15 -85 32
-155 61 -288 100 -404 119 -18 3 -43 8 -55 11 -22 5 -362 13 -368 8z"/>
<path d="M6590 5005 c0 -5 5 -17 10 -25 5 -8 10 -10 10 -5 0 6 -5 17 -10 25
-5 8 -10 11 -10 5z"/>
<path d="M3996 4793 c-6 -14 -5 -15 5 -6 7 7 10 15 7 18 -3 3 -9 -2 -12 -12z"/>
<path d="M4140 4746 c0 -2 8 -10 18 -17 15 -13 16 -12 3 4 -13 16 -21 21 -21
13z"/>
<path d="M4270 4659 c0 -5 5 -7 10 -4 6 3 10 8 10 11 0 2 -4 4 -10 4 -5 0 -10
-5 -10 -11z"/>
<path d="M4540 4526 c0 -2 8 -10 18 -17 15 -13 16 -12 3 4 -13 16 -21 21 -21
13z"/>
<path d="M4656 4462 c-3 -5 1 -9 9 -9 8 0 12 4 9 9 -3 4 -7 8 -9 8 -2 0 -6 -4
-9 -8z"/>
<path d="M5145 4260 c-3 -6 1 -7 9 -4 18 7 21 14 7 14 -6 0 -13 -4 -16 -10z"/>
<path d="M5466 4218 c3 -5 10 -6 15 -3 13 9 11 12 -6 12 -8 0 -12 -4 -9 -9z"/>
<path d="M1257 3624 c-4 -4 -48 -8 -99 -10 -182 -5 -330 -14 -339 -19 -5 -4
-9 -1 -9 5 0 6 -5 8 -12 3 -15 -9 -24 -10 -103 -17 -120 -11 -160 -18 -170
-28 -7 -8 -6 -9 3 -4 7 4 93 10 192 13 133 4 180 2 180 -7 0 -6 5 -8 12 -4 16
10 119 11 125 2 2 -5 9 -6 14 -2 5 3 17 0 26 -8 9 -7 14 -8 10 -2 -5 8 10 11
48 10 30 0 55 -3 55 -6 0 -3 28 -6 63 -7 93 -2 117 -7 127 -23 8 -13 10 -13
10 2 0 11 6 15 20 11 11 -3 17 -10 13 -17 -4 -7 -1 -7 8 1 9 7 26 10 40 7 13
-3 32 -6 42 -6 9 1 16 -2 13 -6 -2 -4 19 -8 47 -8 29 -1 75 -6 102 -12 75 -17
86 -19 132 -27 27 -4 43 -13 46 -23 4 -15 5 -15 6 1 1 15 4 16 24 6 12 -7 33
-14 47 -15 14 -2 44 -10 67 -18 23 -8 44 -12 47 -9 3 4 6 2 6 -3 0 -5 12 -11
27 -12 15 -1 30 -7 33 -13 4 -5 11 -9 16 -7 13 3 84 -24 79 -31 -1 -3 9 -7 24
-8 29 -2 161 -61 172 -76 3 -5 10 -9 15 -10 5 -1 8 -6 6 -10 -1 -5 2 -6 7 -2
12 7 151 -63 151 -76 0 -5 6 -8 13 -6 6 1 11 -4 9 -11 -1 -8 2 -11 7 -8 12 8
61 -14 61 -26 0 -5 5 -6 10 -3 6 3 10 1 10 -5 0 -6 5 -8 10 -5 6 3 10 -1 10
-9 0 -9 3 -15 8 -15 23 4 42 -2 37 -12 -4 -6 -1 -9 6 -8 22 3 50 -12 42 -24
-3 -5 -1 -7 5 -3 15 9 62 -14 62 -31 0 -8 4 -12 9 -8 5 3 21 0 36 -7 19 -9 25
-17 21 -32 -4 -18 -3 -19 6 -5 10 15 16 14 57 -9 25 -14 49 -30 53 -36 4 -6 8
-7 8 -3 0 4 10 2 23 -5 12 -7 26 -12 30 -13 4 0 11 -4 15 -10 4 -5 16 -11 27
-13 11 -2 25 -9 30 -15 6 -7 15 -12 20 -13 34 -4 56 -18 50 -33 -5 -12 -3 -13
6 -4 12 12 21 9 89 -20 28 -12 35 -14 51 -16 5 0 8 -5 5 -10 -3 -5 0 -9 7 -8
38 1 49 -4 43 -19 -5 -13 -3 -14 6 -7 15 12 108 -11 108 -27 0 -5 7 -7 15 -4
8 3 20 2 27 -2 7 -4 21 -9 32 -10 11 0 22 -6 23 -11 2 -6 13 -9 23 -6 11 3 20
0 20 -6 0 -6 6 -10 13 -9 6 2 11 -4 9 -12 -1 -10 2 -9 13 4 8 11 15 15 15 10
0 -9 14 -13 58 -16 6 -1 12 -8 13 -17 0 -10 2 -12 6 -3 7 18 30 15 53 -8 14
-14 20 -16 20 -6 0 9 7 12 20 9 11 -3 20 -8 20 -12 0 -3 21 -7 47 -8 25 -1 50
-7 53 -14 5 -7 10 -8 14 -1 4 7 21 6 50 -3 24 -8 47 -11 50 -8 3 4 6 2 6 -3 0
-5 35 -10 77 -12 46 -2 80 -8 85 -15 6 -9 8 -8 8 2 0 11 4 9 15 -5 14 -18 15
-18 9 0 -6 16 -5 17 15 7 12 -7 18 -17 15 -23 -4 -7 -3 -8 5 -4 6 4 9 11 7 15
-3 4 13 7 35 6 29 0 38 -4 34 -14 -4 -11 -2 -11 9 -2 16 13 86 12 86 -2 0 -4
4 -5 10 -2 20 12 50 14 50 2 0 -8 3 -8 12 1 9 9 16 8 32 -6 11 -9 17 -12 13
-6 -11 19 158 17 173 -1 14 -17 30 -20 30 -4 0 5 -4 8 -9 4 -5 -3 -13 0 -16 6
-5 7 6 9 31 7 23 -2 38 -8 37 -15 -3 -13 22 -12 34 2 4 4 3 5 -4 1 -6 -3 -14
-2 -18 4 -10 16 57 12 76 -6 13 -12 19 -12 25 -3 4 7 3 10 -4 5 -6 -3 -14 -1
-17 5 -5 7 8 9 44 7 29 -3 54 -2 56 2 2 4 31 6 65 6 33 -1 60 2 60 5 0 4 9 9
20 12 11 3 20 0 20 -5 0 -6 6 -5 15 2 8 7 24 10 36 7 12 -3 18 -3 15 0 -3 4
34 16 83 29 48 12 114 34 145 48 31 14 58 26 61 26 2 0 24 14 49 30 158 107
166 254 23 415 -52 59 -158 148 -244 205 -29 19 -57 45 -64 57 -13 24 -4 47
17 39 8 -3 13 -1 11 3 -1 5 1 8 4 8 3 -1 13 4 21 11 9 7 32 14 50 16 19 2 39
5 44 8 16 10 69 12 83 4 9 -6 12 -5 8 1 -4 6 6 13 23 15 17 3 30 1 30 -4 0 -5
6 -6 13 -1 17 11 311 30 315 21 2 -5 7 -6 11 -3 19 11 71 15 71 5 0 -6 5 -8
10 -5 19 12 70 14 70 4 0 -6 4 -8 8 -5 5 3 23 8 40 11 30 5 38 -1 33 -28 -1
-5 3 -6 9 -2 6 3 8 11 5 16 -7 11 -9 10 78 13 41 1 67 -2 67 -9 0 -6 3 -7 8 0
10 14 32 17 32 4 0 -5 5 -7 12 -3 17 11 59 12 86 3 13 -5 22 -5 22 2 0 6 6 6
18 0 13 -7 23 -6 30 1 7 7 12 8 12 2 0 -5 84 -10 208 -11 114 -1 246 -3 295
-6 48 -2 85 -2 82 1 -6 7 -17 9 -100 18 -33 3 -73 8 -90 10 -16 2 -50 6 -75 9
-25 3 -63 7 -85 10 -22 2 -67 7 -100 10 -33 4 -76 9 -95 11 -19 2 -57 6 -85 8
-27 3 -72 7 -100 10 -43 5 -204 17 -242 19 -7 0 -13 5 -13 10 0 5 -6 4 -13 -2
-8 -6 -16 -9 -18 -7 -5 5 -156 17 -226 18 -24 0 -43 5 -43 10 0 5 -6 6 -12 1
-7 -4 -51 -6 -98 -3 -213 10 -692 1 -707 -14 -3 -3 -13 0 -21 7 -9 6 -13 7 -9
1 7 -13 -118 -39 -135 -28 -7 4 -8 3 -4 -4 4 -7 1 -12 -8 -12 -28 0 -90 -34
-119 -64 -31 -34 -29 -56 9 -97 19 -20 22 -28 11 -39 -10 -12 -9 -12 5 -1 14
10 22 7 57 -27 22 -22 43 -37 46 -34 3 3 5 0 5 -6 0 -7 7 -12 16 -12 10 0 14
-6 11 -14 -4 -9 -1 -13 7 -10 7 3 24 -6 39 -18 14 -13 44 -38 66 -57 23 -18
38 -37 35 -42 -3 -5 3 -6 12 -2 12 4 15 2 12 -8 -3 -8 -11 -13 -17 -11 -7 1
-10 -2 -6 -8 5 -8 11 -7 21 1 8 6 16 10 18 8 36 -47 52 -77 48 -88 -3 -8 0
-11 7 -7 11 7 13 2 13 -34 0 -37 -2 -42 -16 -37 -10 4 -13 1 -10 -8 7 -17 -71
-59 -92 -51 -8 3 -13 2 -10 -3 6 -9 -75 -26 -185 -38 -136 -15 -537 -8 -659
12 -8 1 -37 5 -65 10 -27 4 -59 9 -70 11 -11 3 -36 7 -55 10 -19 3 -43 7 -52
10 -9 3 -25 7 -35 9 -10 3 -38 9 -63 15 -180 43 -499 163 -785 295 -27 13 -86
40 -130 60 -334 156 -621 256 -825 289 -19 3 -46 8 -60 11 -14 3 -45 8 -70 11
-25 3 -56 8 -70 9 -14 2 -52 7 -85 10 -33 4 -76 8 -95 11 -69 8 -297 18 -420
18 -69 1 -128 4 -131 9 -3 4 -8 4 -12 1z"/>
<path d="M1695 3460 c-3 -5 -1 -10 4 -10 6 0 11 5 11 10 0 6 -2 10 -4 10 -3 0
-8 -4 -11 -10z"/>
<path d="M560 3439 c-33 -6 -32 -6 15 -8 28 -1 104 -4 170 -7 66 -3 139 -6
162 -7 23 -1 40 -4 38 -7 -2 -3 16 -4 38 -4 28 1 46 -4 54 -15 12 -15 13 -14
7 1 -5 15 -2 16 27 8 19 -6 57 -11 86 -12 29 -1 53 -5 53 -9 0 -3 12 -4 28 -2
21 4 24 2 12 -6 -9 -7 -10 -11 -3 -11 6 0 14 4 18 10 6 10 36 2 47 -14 5 -7 8
-7 8 2 0 9 5 10 18 4 9 -5 27 -8 40 -7 17 1 21 -2 17 -13 -4 -11 -2 -12 7 -4
15 12 68 4 68 -10 0 -6 7 -5 15 2 11 9 15 9 15 1 0 -7 5 -9 11 -6 6 4 17 -1
25 -11 9 -11 13 -13 9 -6 -7 13 47 8 92 -9 13 -5 38 -11 56 -14 17 -4 34 -9
37 -13 3 -4 14 -8 25 -10 11 -2 43 -11 70 -20 52 -17 59 -19 75 -21 6 0 10 -9
10 -18 0 -15 2 -15 9 -4 7 12 13 12 24 3 7 -7 17 -9 20 -5 4 3 7 -2 8 -13 0
-10 3 -13 6 -6 2 6 9 12 14 12 6 0 7 -5 4 -11 -4 -6 -1 -10 6 -8 33 4 40 -1
34 -23 -6 -21 -6 -21 6 -6 13 16 18 15 69 -8 30 -14 57 -30 58 -35 2 -5 8 -7
13 -3 5 3 9 -2 9 -10 0 -8 4 -18 10 -21 6 -4 7 1 3 10 -5 15 -3 15 16 4 12 -8
19 -20 16 -28 -4 -11 -2 -11 8 -3 10 9 19 8 34 -3 11 -8 47 -28 79 -46 32 -17
67 -41 77 -53 10 -11 16 -15 12 -8 -5 10 1 9 24 -3 18 -9 29 -20 26 -25 -3 -5
0 -12 6 -16 8 -4 9 -3 5 4 -5 8 1 12 14 12 12 0 18 -4 15 -10 -3 -5 3 -10 14
-10 12 0 21 -5 21 -11 0 -5 4 -8 9 -4 5 3 16 -1 24 -9 8 -8 17 -12 21 -9 3 4
6 1 6 -5 0 -6 7 -9 15 -6 8 4 17 -1 21 -10 3 -9 10 -13 15 -10 5 3 9 1 9 -3 0
-5 10 -9 21 -10 12 -1 29 -8 38 -16 9 -8 22 -12 29 -10 6 3 12 0 12 -6 0 -6 9
-11 20 -11 11 0 20 -5 20 -10 0 -6 3 -9 8 -8 4 2 27 -6 52 -16 49 -21 54 -23
73 -25 9 -1 9 -3 -1 -9 -8 -6 -2 -9 18 -9 18 0 35 -5 39 -12 5 -7 10 -11 12
-10 8 6 99 -24 99 -32 0 -5 3 -8 8 -7 12 3 221 -65 217 -71 -2 -3 8 -7 22 -8
14 0 35 -6 47 -11 11 -6 35 -14 51 -18 36 -9 25 -6 113 -33 110 -33 97 -19
-15 18 -319 107 -742 314 -1202 590 -189 113 -219 129 -306 166 -56 23 -219
74 -290 90 -15 3 -78 16 -95 19 -8 2 -31 6 -50 9 -109 21 -194 32 -335 42 -44
4 -83 11 -86 17 -4 7 -9 6 -14 -1 -5 -9 -10 -9 -20 -1 -9 8 -15 8 -20 0 -3 -6
-12 -7 -18 -3 -14 9 -530 11 -577 2z"/>
<path d="M3090 3385 c0 -7 30 -13 34 -7 3 4 -4 9 -15 9 -10 1 -19 0 -19 -2z"/>
<path d="M3157 3369 c7 -7 15 -10 18 -7 3 3 -2 9 -12 12 -14 6 -15 5 -6 -5z"/>
<path d="M4827 3359 c7 -7 15 -10 18 -7 3 3 -2 9 -12 12 -14 6 -15 5 -6 -5z"/>
<path d="M3156 3338 c3 -5 10 -6 15 -3 13 9 11 12 -6 12 -8 0 -12 -4 -9 -9z"/>
<path d="M4870 3306 c0 -2 7 -7 16 -10 8 -3 12 -2 9 4 -6 10 -25 14 -25 6z"/>
<path d="M2300 3286 c0 -2 8 -10 18 -17 15 -13 16 -12 3 4 -13 16 -21 21 -21
13z"/>
<path d="M660 3219 c-14 -11 -35 -29 -47 -40 -12 -11 -27 -18 -33 -14 -6 3 -7
0 -4 -9 6 -15 -6 -21 -29 -17 -5 1 -6 -2 -3 -7 8 -13 -43 -54 -56 -46 -6 4 -8
3 -4 -4 3 -6 -14 -27 -39 -48 -36 -29 -43 -39 -34 -50 6 -8 8 -14 4 -14 -5 0
3 -9 16 -21 13 -12 23 -26 21 -33 -2 -6 0 -8 4 -4 4 4 16 -2 26 -14 18 -21 18
-23 2 -35 -10 -7 -13 -13 -7 -13 7 0 15 5 18 10 5 8 11 7 21 -1 7 -6 11 -15 8
-20 -3 -5 2 -6 10 -3 9 3 16 2 16 -4 0 -6 14 -13 30 -17 18 -4 27 -11 24 -17
-4 -7 -2 -8 5 -4 6 4 19 2 28 -6 12 -9 15 -9 9 0 -9 15 -1 15 26 1 15 -8 19
-8 13 1 -4 7 -2 10 6 9 20 -4 91 32 112 56 47 54 61 148 31 208 -23 45 -130
177 -143 177 -3 -1 -17 -10 -31 -21z m115 -134 c20 -43 19 -85 -2 -101 -17
-13 -17 -14 2 -8 20 6 20 5 1 -10 -11 -9 -16 -16 -10 -16 15 0 -77 -80 -95
-81 -74 -7 -94 -4 -121 16 -39 28 -73 72 -66 84 12 18 169 146 177 144 5 -2 9
4 9 12 0 8 7 15 15 15 8 0 15 8 15 17 0 23 54 -29 75 -72z"/>
<path d="M2550 3159 c0 -5 5 -7 10 -4 6 3 10 8 10 11 0 2 -4 4 -10 4 -5 0 -10
-5 -10 -11z"/>
<path d="M3630 3160 c0 -5 5 -10 11 -10 5 0 7 5 4 10 -3 6 -8 10 -11 10 -2 0
-4 -4 -4 -10z"/>
<path d="M7298 3128 c-4 -12 95 -115 157 -162 20 -16 33 -31 29 -35 -4 -3 -9
0 -11 7 -3 6 -9 12 -14 12 -6 0 -8 -4 -5 -8 3 -5 -1 -9 -9 -9 -8 0 -15 4 -15
8 0 5 -10 5 -22 1 -13 -4 -77 -7 -143 -5 -185 4 -199 -5 -117 -78 26 -23 35
-34 20 -25 -16 9 -28 13 -28 9 0 -4 -7 2 -16 13 -8 10 -13 13 -9 7 4 -9 -5
-13 -32 -12 -21 0 -45 -2 -53 -4 -32 -7 -98 -47 -104 -62 -3 -9 -11 -13 -16
-10 -6 4 -9 1 -8 -7 2 -7 -2 -12 -9 -11 -7 2 -10 -3 -7 -11 3 -7 -1 -20 -8
-27 -7 -8 -14 -23 -14 -34 -1 -11 -4 -37 -7 -57 -2 -21 -1 -38 3 -38 5 0 11
-13 15 -28 3 -15 17 -40 30 -54 13 -14 21 -29 17 -33 -4 -4 -2 -6 3 -4 6 1 17
-1 25 -4 69 -30 106 -35 155 -24 11 3 27 7 35 9 20 4 36 17 76 58 33 34 68
112 56 125 -4 3 0 10 8 15 12 8 12 10 1 10 -11 0 -11 3 -1 15 7 9 8 15 2 15
-5 0 -13 12 -17 28 -3 15 -14 36 -22 47 -9 11 0 3 20 -17 21 -21 37 -35 37
-33 0 3 16 -10 36 -30 30 -30 38 -34 51 -23 13 11 5 22 -63 85 -44 40 -78 77
-76 83 1 7 -1 9 -6 6 -5 -3 -19 5 -31 18 l-22 23 28 -3 c15 -2 82 -4 148 -5
66 -1 132 -6 148 -10 17 -5 25 -4 21 2 -3 6 7 7 25 4 59 -10 50 7 -45 95 -27
25 -82 75 -122 113 -74 68 -87 76 -94 55z m-248 -331 c0 -4 3 -6 8 -3 13 8 74
-23 67 -34 -4 -6 -1 -9 7 -8 7 2 12 -3 10 -10 -1 -8 1 -11 6 -8 9 6 35 -23 40
-45 2 -7 7 -16 12 -19 5 -3 11 -18 14 -33 2 -14 7 -31 11 -37 3 -5 1 -10 -5
-10 -7 0 -10 -7 -6 -15 3 -8 -1 -21 -9 -29 -8 -7 -12 -16 -9 -19 9 -8 -32 -27
-41 -19 -5 4 -5 1 -1 -5 4 -7 4 -14 -1 -14 -53 -8 -74 -5 -111 12 -72 35 -144
151 -126 205 12 39 28 64 40 64 6 0 15 7 18 16 4 9 13 14 21 10 8 -3 15 -1 15
4 0 5 9 8 20 7 11 -1 20 -5 20 -10z"/>
<path d="M2130 3100 c0 -5 5 -10 11 -10 5 0 7 5 4 10 -3 6 -8 10 -11 10 -2 0
-4 -4 -4 -10z"/>
<path d="M5170 3061 c0 -6 4 -13 10 -16 6 -3 7 1 4 9 -7 18 -14 21 -14 7z"/>
<path d="M2266 3022 c-3 -5 1 -9 9 -9 8 0 12 4 9 9 -3 4 -7 8 -9 8 -2 0 -6 -4
-9 -8z"/>
<path d="M2835 3000 c3 -5 8 -10 11 -10 2 0 4 5 4 10 0 6 -5 10 -11 10 -5 0
-7 -4 -4 -10z"/>
<path d="M2350 2959 c0 -5 5 -7 10 -4 6 3 10 8 10 11 0 2 -4 4 -10 4 -5 0 -10
-5 -10 -11z"/>
<path d="M2980 2919 c0 -5 5 -7 10 -4 6 3 10 8 10 11 0 2 -4 4 -10 4 -5 0 -10
-5 -10 -11z"/>
<path d="M895 2858 c-66 -28 -144 -61 -174 -74 -29 -14 -56 -23 -58 -20 -3 2
-13 -3 -23 -12 -15 -12 -17 -20 -8 -35 5 -11 13 -16 17 -11 8 12 78 43 109 49
25 4 65 -23 55 -38 -3 -6 -1 -7 4 -4 13 8 46 -27 36 -38 -5 -4 -3 -5 3 -2 22
13 36 -18 23 -49 -7 -16 -13 -31 -14 -34 0 -3 -4 -18 -8 -33 -6 -24 -3 -33 17
-52 22 -20 25 -21 37 -6 8 9 14 25 13 36 0 11 4 28 9 38 8 17 13 37 21 76 1 8
8 17 14 19 6 2 9 9 6 16 -2 6 3 32 12 56 27 77 45 153 37 161 -4 4 -62 -16
-128 -43z m36 -58 c-4 -19 -12 -35 -18 -35 -6 0 -15 -4 -20 -8 -4 -5 -1 -7 7
-5 10 2 14 -3 12 -17 -6 -35 -16 -35 -59 5 l-43 38 63 30 c34 16 63 29 64 28
1 -1 -2 -17 -6 -36z"/>
<path d="M1067 2823 c-7 -13 -35 -115 -41 -148 -2 -16 -5 -30 -6 -30 -1 0 -4
-13 -6 -30 -3 -16 -9 -35 -15 -41 -5 -6 -7 -13 -4 -16 3 -2 0 -20 -5 -39 -18
-59 -20 -88 -10 -94 8 -5 7 -12 -2 -23 -11 -14 13 3 69 48 33 27 77 48 92 43
13 -4 13 -3 2 5 -16 12 3 27 24 18 9 -3 12 0 9 8 -3 8 -1 17 5 21 7 3 11 -2
11 -14 0 -11 -4 -22 -10 -26 -5 -3 -7 -12 -3 -20 3 -10 -1 -15 -13 -15 -14 0
-16 -2 -6 -9 11 -6 11 -17 4 -44 -6 -20 -7 -38 -4 -41 3 -3 0 -6 -7 -6 -7 0
-11 -6 -8 -14 3 -8 1 -17 -6 -20 -8 -3 -8 -5 2 -5 10 -1 11 -4 3 -14 -9 -11
-5 -13 18 -13 16 0 28 2 25 4 -7 8 79 61 89 55 5 -3 6 -1 3 4 -4 6 32 36 78
67 72 48 83 52 73 31 -6 -14 -16 -25 -21 -25 -6 0 -8 -3 -4 -6 8 -9 -43 -105
-53 -99 -5 3 -7 -3 -5 -14 2 -11 -3 -25 -11 -32 -8 -6 -14 -18 -14 -26 0 -8
-5 -11 -12 -7 -7 4 -8 3 -4 -5 4 -6 3 -18 -3 -25 -9 -10 -7 -15 9 -19 19 -5
45 34 120 178 9 17 21 29 27 28 7 -1 9 6 5 19 -3 14 -1 19 6 15 5 -4 9 -18 7
-32 -1 -14 2 -25 6 -25 5 0 9 -5 9 -11 0 -5 -5 -7 -11 -3 -6 3 -4 -4 5 -18 9
-13 14 -34 11 -46 -2 -12 1 -22 7 -22 6 0 8 -9 5 -20 -3 -11 -1 -20 5 -20 5 0
8 -6 6 -12 -3 -7 1 -24 9 -38 8 -15 9 -26 3 -28 -6 -2 -6 -11 1 -24 6 -11 8
-26 5 -34 -3 -9 -1 -12 4 -9 6 3 10 -2 10 -12 0 -11 5 -24 12 -31 8 -8 20 5
46 56 19 37 41 78 50 92 9 14 29 51 44 83 15 31 31 57 36 57 5 0 9 6 9 13 0 6
4 19 7 28 5 10 2 19 -7 22 -10 4 -26 -12 -48 -46 -18 -29 -34 -57 -35 -63 -1
-6 -16 -35 -32 -64 -34 -59 -33 -60 -57 45 -8 39 -18 78 -20 88 -10 37 -16 63
-21 91 -17 91 -46 107 -113 62 -25 -16 -48 -32 -51 -35 -11 -12 -99 -71 -106
-71 -4 0 -13 -8 -20 -17 -12 -16 -13 -16 -14 -2 0 9 11 67 25 129 14 62 24
114 23 116 -4 3 -129 -74 -138 -85 -7 -9 -68 -51 -74 -51 -5 0 1 43 11 75 3
11 7 29 9 40 3 20 8 43 20 88 14 52 9 89 -13 104 -11 8 -23 11 -26 6z"/>
<path d="M3520 2680 c-9 -6 -10 -10 -3 -10 6 0 15 5 18 10 8 12 4 12 -15 0z"/>
<path d="M6737 2642 c-15 -9 -27 -20 -27 -24 0 -4 29 -50 64 -102 36 -53 62
-96 58 -96 -3 0 4 -7 16 -16 12 -8 22 -24 22 -35 0 -11 5 -17 10 -14 6 3 10 0
10 -7 0 -7 7 -21 15 -31 13 -18 15 -18 44 4 l31 23 -26 33 c-14 18 -26 42 -27
52 -1 11 -5 18 -9 15 -10 -6 -39 52 -30 61 4 3 0 5 -8 3 -8 -1 -14 3 -12 10 1
6 -2 12 -6 12 -14 0 -62 81 -55 92 3 6 1 8 -5 4 -6 -3 -17 2 -24 13 -13 18
-15 18 -41 3z"/>
<path d="M6600 2558 c-47 -28 -109 -64 -138 -82 -60 -34 -87 -68 -51 -61 11 2
40 16 64 30 24 14 47 25 52 25 5 0 22 -26 38 -57 17 -32 33 -60 36 -63 3 -3
16 -25 30 -50 13 -25 29 -51 36 -58 6 -6 15 -22 19 -35 10 -34 25 -38 56 -15
20 13 26 24 19 31 -8 11 -23 36 -79 137 -14 25 -34 58 -45 73 -10 16 -20 39
-21 52 0 13 -3 23 -6 23 -25 -2 -15 8 41 40 55 30 64 39 53 50 -16 15 -3 20
-104 -40z"/>
<path d="M956 2562 c-3 -5 1 -9 9 -9 8 0 12 4 9 9 -3 4 -7 8 -9 8 -2 0 -6 -4
-9 -8z"/>
<path d="M4090 2541 c0 -6 4 -13 10 -16 6 -3 7 1 4 9 -7 18 -14 21 -14 7z"/>
<path d="M6766 2478 c3 -5 10 -6 15 -3 13 9 11 12 -6 12 -8 0 -12 -4 -9 -9z"/>
<path d="M3686 2471 c13 -15 148 -51 184 -50 14 0 -11 10 -55 20 -44 11 -88
21 -98 24 -9 2 -23 7 -30 11 -9 5 -9 4 -1 -5z"/>
<path d="M1340 2406 c0 -2 8 -10 18 -17 15 -13 16 -12 3 4 -13 16 -21 21 -21
13z"/>
<path d="M6294 2402 c-6 -4 -11 -30 -11 -58 0 -28 -3 -56 -7 -62 -4 -7 -3 -12
1 -12 10 0 8 -64 -2 -81 -5 -8 -4 -10 3 -5 9 5 12 -20 12 -93 l0 -100 -22 12
c-13 7 -51 29 -85 51 l-62 38 22 32 c28 39 31 58 17 101 -8 25 -20 37 -46 45
-40 14 -101 7 -144 -15 -16 -8 -31 -15 -32 -14 -2 0 -16 -4 -31 -10 -16 -6
-33 -9 -37 -6 -5 3 1 -18 14 -48 13 -29 26 -64 28 -78 1 -13 9 -30 16 -37 6
-7 12 -22 12 -32 0 -10 5 -22 11 -25 6 -4 8 -13 5 -21 -3 -8 -1 -14 5 -14 6 0
7 -4 4 -10 -3 -5 -2 -10 3 -10 5 0 9 -7 10 -15 1 -8 3 -22 4 -30 1 -8 6 -15
11 -15 5 0 6 -8 3 -17 -4 -10 -4 -14 0 -11 4 4 16 3 27 -3 14 -8 17 -8 13 0
-4 6 4 13 18 17 l25 6 -19 44 c-11 24 -18 44 -16 44 3 0 -4 17 -14 38 -16 32
-16 38 -4 45 18 10 48 1 40 -12 -3 -5 2 -8 12 -7 9 0 16 -5 14 -12 -1 -8 3
-12 10 -9 17 6 50 -11 43 -22 -2 -5 3 -8 12 -7 10 0 18 -4 18 -11 0 -6 4 -15
9 -20 5 -5 6 -3 2 5 -4 6 -2 12 4 12 6 0 13 -7 16 -15 4 -8 10 -12 15 -9 5 3
9 -1 9 -8 0 -8 3 -9 8 -3 4 6 24 18 45 27 36 17 37 20 38 70 1 29 1 60 0 69
-2 19 104 73 121 63 7 -4 8 -2 4 4 -14 23 23 12 49 -13 14 -14 25 -23 25 -19
0 4 8 -2 18 -13 24 -27 49 -35 56 -17 3 8 12 14 21 14 8 0 15 3 15 6 0 7 -39
43 -101 94 -58 48 -179 149 -204 171 -11 10 -25 15 -31 11z m67 -132 c19 -16
37 -30 42 -30 4 0 7 -7 7 -16 0 -8 5 -12 10 -9 6 3 10 2 10 -2 0 -12 -61 -34
-73 -26 -6 3 -7 1 -3 -5 4 -7 5 -12 2 -12 -2 0 -11 -3 -20 -6 -13 -5 -16 2
-16 45 0 43 2 50 18 45 16 -5 16 -5 0 6 -10 6 -18 18 -18 25 0 20 2 19 41 -15z
m-308 -41 c30 -14 48 -49 40 -80 -7 -27 -19 -41 -50 -57 -32 -18 -49 -6 -63
44 -7 24 -17 47 -21 50 -17 10 -8 25 24 39 40 18 40 18 70 4z"/>
<path d="M6550 2403 c0 -6 8 -17 18 -24 16 -13 16 -13 2 6 -8 11 -16 22 -17
24 -2 2 -3 0 -3 -6z"/>
<path d="M1943 2265 c-17 -7 -35 -10 -39 -7 -4 4 -4 2 0 -5 4 -7 -1 -16 -12
-22 -10 -5 -27 -26 -37 -45 -11 -19 -22 -31 -25 -26 -3 5 -5 -19 -4 -55 2 -67
21 -135 38 -135 5 0 7 -3 3 -6 -7 -8 17 -34 32 -34 6 0 11 -3 11 -8 0 -4 19
-16 43 -26 47 -21 133 -24 167 -6 11 6 26 8 33 4 6 -4 9 -4 5 1 -4 4 6 18 23
32 63 54 83 157 45 236 -19 39 -70 84 -119 105 -37 16 -124 15 -164 -3z m160
-31 c-1 -7 5 -11 14 -10 9 0 27 -14 40 -33 22 -33 23 -57 0 -45 -7 3 -4 -1 6
-9 9 -8 17 -18 17 -22 0 -4 -8 -4 -17 -1 -15 5 -15 4 1 -9 11 -8 15 -15 9 -15
-6 0 -11 -6 -10 -12 1 -35 -4 -49 -15 -42 -7 4 -8 3 -4 -4 16 -26 -64 -116
-110 -125 -14 -2 -43 5 -67 17 -67 33 -86 96 -56 183 34 101 83 146 154 141
23 -2 39 -8 38 -14z"/>
<path d="M2136 2173 c-6 -14 -5 -15 5 -6 7 7 10 15 7 18 -3 3 -9 -2 -12 -12z"/>
<path d="M5830 2213 c0 -9 -79 -39 -157 -60 -85 -22 -99 -35 -76 -70 8 -13 13
-32 10 -43 -3 -13 -1 -18 6 -13 6 4 8 -1 5 -13 -3 -11 1 -26 9 -33 8 -7 12
-19 9 -26 -3 -8 -1 -15 4 -17 6 -2 11 -15 12 -30 1 -16 6 -28 10 -28 4 0 8 -5
8 -11 0 -5 -4 -7 -10 -4 -5 3 -10 1 -10 -4 0 -6 7 -11 15 -11 9 0 12 -6 9 -15
-4 -8 -11 -12 -17 -8 -6 3 -7 1 -3 -6 4 -6 12 -9 17 -5 5 3 14 -8 20 -24 12
-35 35 -48 43 -25 4 9 9 13 12 10 3 -3 24 1 47 9 23 8 47 12 55 9 7 -2 11 -1
8 3 -3 5 19 16 49 26 52 16 66 28 46 40 -5 3 -27 -1 -50 -9 -23 -8 -43 -15
-46 -15 -6 -1 -17 -4 -63 -19 -25 -8 -34 -7 -37 2 -19 63 -27 90 -29 100 -1 7
-5 17 -9 24 -9 15 -1 19 67 41 42 13 53 21 46 32 -7 11 -16 11 -60 -3 -29 -9
-56 -17 -60 -17 -7 0 -40 88 -40 108 0 12 59 34 71 26 5 -3 9 -1 9 4 0 4 23
15 50 22 28 7 50 18 50 24 0 15 -20 44 -20 29z"/>
<path d="M2314 2121 c-10 -36 -23 -62 -33 -64 -12 -4 -11 -5 3 -6 20 -1 20 -1
0 -17 -10 -8 -13 -13 -6 -9 6 3 12 1 12 -4 0 -6 -4 -11 -8 -11 -4 0 -8 -10 -9
-22 -2 -20 -5 -31 -29 -93 -4 -11 -6 -24 -5 -29 1 -4 -6 -15 -16 -23 -10 -8
-12 -12 -5 -8 8 4 12 -2 12 -17 0 -19 5 -23 31 -23 29 0 32 4 50 60 10 33 21
71 24 84 6 31 11 35 32 26 21 -9 47 -14 82 -18 34 -3 37 19 4 28 -15 5 -30 9
-33 10 -3 1 -18 5 -33 10 -25 6 -28 11 -22 34 4 14 8 34 10 43 7 36 26 60 39
49 6 -5 25 -12 41 -15 17 -3 46 -10 65 -16 45 -13 50 -13 50 4 0 12 -20 20
-160 61 -25 7 -53 16 -62 20 -14 6 -20 -3 -34 -54z"/>
<path d="M5875 2141 c-3 -5 -2 -12 3 -15 5 -3 9 1 9 9 0 17 -3 19 -12 6z"/>
<path d="M6436 2142 c-3 -5 1 -9 9 -9 8 0 12 4 9 9 -3 4 -7 8 -9 8 -2 0 -6 -4
-9 -8z"/>
<path d="M1790 2119 c0 -5 5 -7 10 -4 6 3 10 8 10 11 0 2 -4 4 -10 4 -5 0 -10
-5 -10 -11z"/>
<path d="M5508 2081 c-2 -16 -1 -28 3 -26 4 3 9 -4 12 -15 3 -11 0 -20 -6 -20
-7 0 -5 -5 4 -10 10 -6 15 -21 14 -40 -1 -16 3 -30 8 -30 5 0 7 -10 5 -23 -2
-13 1 -29 9 -35 16 -15 17 -32 3 -32 -6 0 -34 17 -63 38 -145 106 -235 162
-251 156 -18 -7 -20 -48 -3 -71 5 -7 7 -20 3 -28 -3 -8 -1 -15 4 -15 5 0 8
-13 6 -30 -2 -16 1 -27 5 -24 5 3 9 -5 9 -18 0 -13 4 -30 10 -38 6 -9 5 -20
-3 -29 -7 -9 -8 -12 -1 -8 7 4 16 -14 24 -51 17 -71 17 -72 35 -65 16 5 15 12
-5 98 -6 28 -14 59 -16 70 -2 11 -6 31 -9 45 -16 68 -16 72 -3 64 27 -15 47
-37 42 -45 -3 -5 1 -6 9 -4 7 3 24 -4 37 -15 13 -11 43 -33 67 -48 24 -15 41
-32 39 -39 -3 -7 0 -15 6 -19 7 -5 8 -2 3 5 -5 9 -2 12 11 9 11 -2 18 -10 16
-17 -2 -9 3 -11 13 -8 8 4 15 2 15 -3 0 -5 9 -12 20 -15 11 -4 18 -10 15 -15
-3 -4 4 -6 16 -3 21 6 21 8 4 73 -3 14 -8 36 -9 50 -2 14 -6 32 -9 40 -6 16
-26 92 -33 125 -16 76 -21 90 -36 93 -11 2 -17 -6 -20 -27z"/>
<path d="M5575 2060 c3 -5 8 -10 11 -10 2 0 4 5 4 10 0 6 -5 10 -11 10 -5 0
-7 -4 -4 -10z"/>
<path d="M2844 2042 c-6 -4 -13 -15 -17 -25 -4 -10 -12 -15 -17 -12 -6 4 -9 1
-8 -7 2 -7 -2 -12 -8 -11 -7 1 -11 -5 -10 -15 0 -9 -5 -16 -12 -14 -8 1 -11
-2 -7 -8 3 -5 -5 -21 -19 -35 -14 -14 -26 -28 -26 -30 0 -13 -103 -145 -112
-145 -6 0 -8 -3 -5 -7 4 -3 2 -12 -3 -18 -8 -9 -5 -14 9 -18 14 -3 26 3 38 21
47 65 74 90 93 85 11 -3 18 -9 15 -13 -2 -4 6 -5 20 -3 40 8 92 -15 99 -43 4
-14 4 -29 1 -34 -4 -6 -1 -10 4 -10 6 0 11 -10 11 -23 0 -31 18 -47 53 -47 22
0 27 4 23 18 -6 18 -64 260 -72 302 -11 57 -25 100 -32 100 -4 0 -12 -4 -18
-8z m-16 -117 c-3 -14 -1 -22 5 -18 5 3 7 0 5 -8 -3 -8 -12 -12 -19 -11 -8 2
-10 0 -6 -5 5 -4 14 -8 20 -8 6 0 14 -15 18 -33 6 -31 5 -33 -15 -28 -11 2
-38 8 -58 11 -34 6 -36 9 -27 27 19 34 42 57 53 51 6 -3 8 -3 4 2 -7 8 8 45
19 45 3 0 3 -11 1 -25z"/>
<path d="M5906 2042 c-3 -5 1 -9 9 -9 8 0 12 4 9 9 -3 4 -7 8 -9 8 -2 0 -6 -4
-9 -8z"/>
<path d="M5147 2024 c-1 -1 -22 -5 -47 -9 -25 -3 -52 -8 -60 -10 -8 -3 -32 -7
-53 -9 -52 -7 -59 -13 -52 -49 3 -18 8 -45 11 -62 3 -16 9 -42 14 -57 6 -18 5
-30 -2 -34 -7 -4 -7 -9 0 -13 15 -9 19 -56 5 -54 -7 2 -13 -2 -13 -8 0 -6 6
-9 14 -6 17 7 30 -20 13 -27 -9 -3 -9 -7 -1 -13 7 -4 14 -19 15 -33 4 -22 9
-25 47 -25 23 -1 42 2 42 5 0 3 8 6 18 6 16 1 77 11 112 19 8 2 23 4 33 4 10
1 17 9 17 22 0 11 -3 18 -7 16 -5 -3 -26 -8 -48 -12 -22 -3 -49 -8 -60 -10
-84 -17 -82 -18 -89 28 -4 23 -7 43 -7 44 0 2 -4 16 -9 33 -9 32 -2 42 35 47
11 2 29 5 40 7 11 2 28 4 37 5 11 1 15 6 11 17 -4 12 -15 14 -52 9 -25 -3 -55
-8 -67 -11 -13 -3 -21 0 -21 8 0 12 -9 69 -15 100 -2 7 6 13 17 13 11 1 25 3
30 7 6 3 33 9 60 13 28 5 53 9 58 11 4 1 12 2 17 3 6 0 10 8 10 16 0 10 -9 14
-26 13 -14 -2 -26 -3 -27 -4z"/>
<path d="M3205 1963 c-5 -10 -7 -29 -6 -42 2 -17 -1 -21 -11 -15 -10 6 -11 5
-1 -8 7 -8 11 -17 9 -19 -2 -2 -7 -44 -11 -94 -4 -50 -12 -93 -18 -97 -9 -6
-9 -8 0 -8 7 0 11 -6 9 -12 -3 -7 -7 -28 -10 -45 -5 -28 -3 -33 14 -33 12 0
21 7 21 18 1 9 3 26 4 37 1 11 6 45 9 75 4 30 9 69 12 85 3 17 5 38 5 48 0 9
3 17 7 16 9 0 72 -96 72 -109 0 -5 4 -10 8 -10 12 0 42 -56 34 -65 -4 -5 -1
-5 6 -1 9 5 15 1 19 -13 3 -12 10 -21 15 -21 5 0 6 -4 3 -10 -3 -5 -1 -10 4
-10 6 0 11 -7 11 -16 0 -9 5 -12 13 -8 9 6 9 4 -1 -8 -10 -13 -10 -18 -1 -24
8 -4 9 -3 5 4 -4 7 -3 12 3 12 6 0 15 -9 21 -21 6 -11 17 -18 23 -16 12 4 13
9 21 92 9 116 19 181 27 197 5 10 5 19 0 22 -5 3 -5 21 -1 40 6 29 5 35 -11
39 -13 4 -19 0 -19 -12 0 -9 -5 -22 -12 -29 -9 -9 -9 -12 1 -12 7 0 10 -4 7
-9 -6 -8 -18 -110 -20 -163 -1 -28 -16 -52 -16 -25 0 8 -4 17 -9 19 -4 2 -45
55 -91 118 -79 110 -113 150 -130 150 -4 0 -11 -8 -15 -17z"/>
<path d="M4652 1951 c-45 -18 -98 -64 -108 -93 -3 -10 -9 -16 -13 -14 -4 3 -6
-8 -5 -25 1 -16 -1 -29 -5 -29 -4 0 -7 -13 -7 -30 0 -16 4 -30 9 -30 5 0 3 -8
-4 -17 -7 -10 -9 -15 -5 -11 5 5 22 -15 38 -42 16 -28 33 -50 39 -50 6 0 7 -5
4 -10 -4 -6 -3 -10 2 -9 20 3 44 -2 40 -8 -3 -5 15 -9 41 -11 25 -2 54 -8 65
-14 14 -7 17 -7 13 1 -5 7 3 11 18 12 56 3 65 4 72 12 4 4 15 7 24 7 21 0 55
36 55 58 0 10 -3 27 -7 38 -3 12 -2 26 4 32 6 6 6 12 -1 16 -6 4 -11 20 -11
36 0 16 -5 32 -12 36 -7 4 -8 3 -4 -4 5 -8 -4 -12 -28 -13 -20 -1 -40 -3 -46
-4 -5 -1 -19 -3 -30 -4 -11 0 -20 -8 -20 -17 0 -13 7 -15 34 -10 28 5 34 3 39
-14 4 -17 1 -19 -19 -16 -15 3 -22 1 -18 -5 3 -6 9 -8 12 -5 13 13 32 -19 32
-54 0 -33 -4 -39 -32 -51 -125 -51 -247 76 -208 216 7 24 22 53 34 64 24 22
83 48 106 45 8 -1 23 -2 32 -3 9 0 31 -17 49 -36 22 -23 36 -31 44 -25 7 6 15
7 18 3 4 -3 7 -2 7 3 -1 15 -54 62 -85 75 -45 18 -117 18 -163 0z"/>
<path d="M5606 1958 c3 -5 10 -6 15 -3 13 9 11 12 -6 12 -8 0 -12 -4 -9 -9z"/>
<path d="M5930 1939 c0 -5 5 -7 10 -4 6 3 10 8 10 11 0 2 -4 4 -10 4 -5 0 -10
-5 -10 -11z"/>
<path d="M3585 1930 c-3 -6 -3 -15 1 -22 4 -6 3 -9 -2 -5 -5 3 -9 -19 -9 -51
1 -40 -3 -61 -14 -70 -14 -11 -14 -12 -1 -10 8 2 14 -2 13 -8 -1 -7 -3 -41 -4
-78 -1 -36 -5 -64 -8 -62 -3 2 -6 -9 -7 -25 -1 -17 3 -26 9 -22 6 3 7 1 3 -5
-8 -13 23 -31 43 -24 9 3 11 0 6 -9 -6 -11 -5 -12 6 -1 7 6 24 12 37 12 16 0
21 -4 16 -12 -5 -10 -4 -10 6 -1 8 8 20 9 37 2 15 -5 22 -5 18 0 -3 6 15 7 43
4 39 -4 50 -2 55 11 5 13 -2 16 -41 18 -26 0 -56 2 -67 3 -11 1 -36 3 -56 4
l-36 1 4 68 c2 37 6 72 8 79 2 7 25 10 65 9 65 -2 71 -1 64 18 -3 8 -28 14
-62 15 -56 2 -76 14 -67 39 3 8 5 31 5 53 0 38 1 39 36 39 25 0 33 -3 28 -12
-6 -10 -4 -10 7 -2 14 11 115 11 126 1 3 -4 6 -18 6 -31 0 -14 3 -23 8 -20 13
8 11 -10 -3 -24 -9 -9 -9 -15 1 -24 10 -11 11 -10 6 5 -4 9 -3 17 3 17 15 0
23 -42 10 -57 -8 -10 -7 -12 6 -7 11 4 19 -1 25 -17 5 -13 7 -27 4 -31 -2 -5
1 -8 7 -8 7 0 10 -7 6 -15 -3 -8 -1 -15 5 -15 6 0 8 -7 5 -16 -3 -8 -2 -12 4
-9 6 3 10 0 10 -8 0 -8 7 -28 16 -45 8 -18 13 -35 10 -40 -2 -4 6 -9 18 -10
17 -1 25 7 35 36 8 20 18 48 24 62 6 14 11 30 13 35 27 83 44 110 44 66 0 -11
5 -23 10 -26 6 -3 10 -15 10 -26 0 -10 5 -19 10 -19 7 0 7 -7 0 -21 -7 -11 -9
-23 -6 -27 3 -3 6 0 6 6 0 7 5 12 10 12 6 0 9 -3 8 -7 -3 -16 35 -93 46 -93
12 0 31 45 83 195 13 39 28 79 33 90 22 47 38 105 30 110 -10 6 -41 -5 -36
-14 2 -3 -4 -24 -15 -45 -10 -22 -19 -46 -19 -53 0 -8 -4 -12 -9 -9 -5 4 -7
-3 -4 -14 3 -11 1 -20 -4 -20 -5 0 -10 -12 -11 -27 -1 -15 -5 -29 -10 -32 -4
-3 -9 -15 -10 -26 -2 -11 -8 -27 -13 -35 -6 -11 -8 -8 -9 12 0 14 -3 28 -8 30
-4 2 -21 37 -37 78 -16 41 -35 86 -42 99 -12 25 -12 24 -33 -23 -11 -26 -20
-51 -20 -54 0 -4 -13 -41 -29 -82 -25 -62 -36 -74 -30 -34 0 4 -3 10 -8 13 -5
3 -29 55 -54 115 -50 125 -30 112 -194 121 -49 3 -107 7 -127 10 -21 2 -40 0
-43 -5z"/>
<path d="M3816 1853 c-6 -14 -5 -15 5 -6 7 7 10 15 7 18 -3 3 -9 -2 -12 -12z"/>
<path d="M3270 1786 c0 -2 7 -7 16 -10 8 -3 12 -2 9 4 -6 10 -25 14 -25 6z"/>
<path d="M5530 1746 c0 -2 7 -7 16 -10 8 -3 12 -2 9 4 -6 10 -25 14 -25 6z"/>
<path d="M5273 1727 c0 -8 6 -14 14 -14 9 0 10 4 2 14 -6 7 -12 13 -14 13 -1
0 -2 -6 -2 -13z"/>
<path d="M2855 1680 c-3 -5 -1 -10 4 -10 6 0 11 5 11 10 0 6 -2 10 -4 10 -3 0
-8 -4 -11 -10z"/>
<path d="M3936 1582 c-3 -5 1 -9 9 -9 8 0 12 4 9 9 -3 4 -7 8 -9 8 -2 0 -6 -4
-9 -8z"/>
</g>
</svg>
